<svg xmlns="http://www.w3.org/2000/svg" viewBox="0 0 20 20">
	<defs>
		<clipPath id="US-circle">
			<circle cx="10" cy="10" r="10"/>
		</clipPath>
	</defs>
	<g clip-path="url(#US-circle)">
		<path d="M-5-5h30v30H-5z" fill="#fff"/>
		<path d="M-2,18.67H26V20H-2ZM-2,16H26v1.33H-2Zm0-2.67H26v1.34H-2Zm0-2.66H26V12H-2ZM-2,8H26V9.33H-2Zm0-2.67H26V6.67H-2Zm0-2.66H26V4H-2ZM-2,0H26V1.33H-2Z" fill="#d02f44"/>
		<path d="M-2 0h12v9.33H-2z" fill="#46467f"/>
		<g fill="#fff">
			<path d="M7.04 6.75L6.7 7l.12-.4-.33-.25h.42l.13-.4.13.4h.42l-.34.25.13.4-.34-.24z"/>
			<path d="M5.2 6.75L4.86 7 5 6.6l-.34-.25h.42l.14-.4.13.4h.42l-.34.25.13.4-.34-.24z"/>
			<path d="M3.37 6.75L3.03 7l.13-.4-.34-.25h.42l.13-.4.13.4h.42l-.33.25.12.4-.34-.24z"/>
			<path d="M1.54 6.75L1.2 7l.12-.4L1 6.34h.42l.13-.4.13.4h.42l-.34.25.13.4-.34-.24z"/>
			<path d="M7.04 4.9l-.34.25.12-.4-.33-.25h.42l.13-.4.13.4h.42l-.34.25.13.4-.34-.25z"/>
			<path d="M5.2 4.9l-.35.25.13-.4-.34-.25h.42l.14-.4.13.4h.42l-.34.25.13.4-.34-.25z"/>
			<path d="M3.37 4.9l-.34.25.13-.4-.34-.25h.42l.13-.4.13.4h.42l-.33.25.12.4-.34-.25z"/>
			<path d="M1.54 4.9l-.34.25.12-.4L1 4.5h.42l.13-.4.13.4h.42l-.34.25.13.4-.34-.25z"/>
			<path d="M7.04 3.08l-.34.24.12-.4-.33-.25h.42l.13-.4.13.4h.42l-.34.25.13.4-.34-.24z"/>
			<path d="M5.2 3.08l-.35.24.13-.4-.34-.25h.42l.14-.4.13.4h.42l-.34.25.13.4-.34-.24z"/>
			<path d="M3.37 3.08l-.34.24.13-.4-.34-.25h.42l.13-.4.13.4h.42l-.33.25.12.4-.34-.24z"/>
			<path d="M1.54 3.08l-.34.24.12-.4L1 2.67h.42l.13-.4.13.4h.42l-.34.25.13.4-.34-.24z"/>
			<path d="M7.04 1.24l-.34.25.12-.4L6.5.84 6.9.83l.13-.4.13.4.42.01-.34.25.13.4-.34-.25z"/>
			<path d="M8.87 6.75L8.53 7l.13-.4-.34-.25h.42l.13-.4.13.4h.42l-.33.25.12.4-.34-.24z"/>
			<path d="M7.04 8.58l-.34.24.12-.4-.33-.25.42-.01.13-.4.13.4.42.01-.34.25.13.4-.34-.24z"/>
			<path d="M5.2 8.58l-.35.24.13-.4-.34-.25.42-.01.14-.4.13.4.42.01-.34.25.13.4-.34-.24z"/>
			<path d="M3.37 8.58l-.34.24.13-.4-.34-.25.42-.01.13-.4.13.4.42.01-.33.25.12.4-.34-.24z"/>
			<path d="M1.54 8.58l-.34.24.12-.4L1 8.18l.42-.01.13-.4.13.4.42.01-.34.25.13.4-.34-.24z"/>
			<path d="M8.87 8.58l-.34.24.13-.4-.34-.25.42-.01.13-.4.13.4.42.01-.33.25.12.4-.34-.24z"/>
			<path d="M8.87 4.9l-.34.25.13-.4-.34-.25h.42l.13-.4.13.4h.42l-.33.25.12.4-.34-.25z"/>
			<path d="M8.87 3.08l-.34.24.13-.4-.34-.25h.42l.13-.4.13.4h.42l-.33.25.12.4-.34-.24z"/>
			<path d="M8.87 1.24l-.34.25.13-.4-.34-.25.42-.01.13-.4.13.4.42.01-.33.25.12.4-.34-.25z"/>
			<path d="M5.2 1.24l-.35.25.13-.4-.34-.25.42-.01.14-.4.13.4.42.01-.34.25.13.4-.34-.25z"/>
			<path d="M3.37 1.24l-.34.25.13-.4-.34-.25.42-.01.13-.4.13.4.42.01-.33.25.12.4-.34-.25z"/>
			<path d="M1.54 1.24l-.34.25.12-.4L1 .84 1.4.83l.13-.4.13.4.42.01-.34.25.13.4-.34-.25z"/>
		</g>
	</g>
</svg>